 <svg width="43.3" version="1.1" xmlns="http://www.w3.org/2000/svg" xmlns:xlink="http://www.w3.org/1999/xlink" x="0px" y="0px" viewBox="0 0 43.3 35.8" enable-background="new 0 0 43.3 35.8" xml:space="preserve">
                    <g id="Layer_2">
                    </g>
                    <g id="Layer_1">
                    <g>
                    <g>
                    <circle fill="none" stroke="#007DC4" stroke-miterlimit="10" cx="14.8" cy="9" r="8.5"></circle>
                    <path fill="none" stroke="#007DC4" stroke-miterlimit="10" d="M22.6,17.8c-1.3,3-4.3,5.2-7.8,5.2c-3.4,0-6.3-2-7.7-4.8
                    c-4,2.6-6.6,7.1-6.6,12.2v0c0,2.7,2.2,4.9,4.9,4.9h19.5c2.7,0,4.9-2.2,4.9-4.9v0C29.8,25,26.9,20.4,22.6,17.8z"></path>
                    </g>
                    <path fill="none" stroke="#007DC4" stroke-miterlimit="10" d="M30.9,22.9c0.5,0.1,1,0.2,1.6,0.2c3.2,0,5.8-2.6,5.8-5.8
                    s-2.6-5.8-5.8-5.8s-5.8,2.6-5.8,5.8c0,0.4,0,0.8,0.1,1.1"></path>
                    <path fill="none" stroke="#007DC4" stroke-miterlimit="10" d="M30.8,35.3h8.7c1.8,0,3.3-1.5,3.3-3.3c0-3.7-2-6.8-4.9-8.6
                    c-0.9,2.1-2.9,3.5-5.3,3.5"></path>
                    </g>
                    </g>
</svg>