<svg width="80%" version="1.1" xmlns="http://www.w3.org/2000/svg" xmlns:xlink="http://www.w3.org/1999/xlink" x="0px" y="0px" viewBox="0 0 968.1 97.9" enable-background="new 0 0 968.1 97.9" xml:space="preserve">
<g id="Layer_2">
</g>
<g id="Layer_1">
<g>
<g>
<path fill="none" stroke="#007DC4" stroke-miterlimit="10" d="M314.9,96.7l14.6-26c0,0.7,1.4,1.3,3.2,1.3c1.5,0,2.7-0.4,3.1-0.9
v10.4h3V71.1c0.4,0.5,1.6,0.9,3.1,0.9c1.3,0,2.5-0.3,3-0.8l14.3,25.5 M364,96.7l-2.1-4.6l-10.7-32.6c-0.6-1.7-1.9-3.1-3.6-3.7
l-8.8-3.2h-3.5l0,0l-8.8,3.2c-1.7,0.6-3,2-3.6,3.7l-10.7,32.5l-2.1,4.7 M337.1,57.8l4.5,7.6h-8.9L337.1,57.8z M338.9,70l0-2.1
c-0.3,0.4-0.9,0.6-1.5,0.6c-0.6,0-1.2-0.2-1.5-0.6v2c-1.5,0.6-4.1,1.1-5.7-0.4l1-1.7h4.6c0.3,0.4,0.9,0.6,1.6,0.6
c0.7,0,1.2-0.3,1.6-0.6h4.1l1.2,2.1C342.9,70.8,340.6,71,338.9,70z"></path>
<path fill="none" stroke="#007DC4" stroke-miterlimit="10" d="M383.5,25.6c0-0.9-0.7-1.6-1.6-1.6l-11-1.3c-1.6-0.3-3.2-0.3-4.8,0
l-11,1.3c-0.9,0-1.7,0.7-1.7,1.6l0,9.2h1.7c-0.8,0.3-1.2,0.9-1.2,1.4c0,1,3.6,2.1,7,2.1c2.6,0,4.8-0.8,5.9-1.3v11h3.8V37
c1.1,0.5,3.3,1.3,5.9,1.3c3.3,0,7-1.1,7-2.1c0-0.4-0.5-1.1-1.2-1.4h1.4V25.6z M360.9,38.3c-3.1,0-5.5-0.9-6.1-1.3
c2.9-1.9,9.8-1,11.7,0C365.4,37.5,363.3,38.3,360.9,38.3z M365.8,34.8h1v0.4C366.5,35,366.2,34.9,365.8,34.8z M370.6,34.8h0.9
c-0.4,0.1-0.7,0.3-0.9,0.4V34.8z M382.5,37c-0.6,0.4-3,1.3-6.1,1.3c-2.4,0-4.5-0.8-5.6-1.3C372.9,35.8,379.8,34.9,382.5,37z"></path>
<path fill="none" stroke="#007DC4" stroke-miterlimit="10" d="M379.9,46.1l-3.3,3.2h0.2v16.5h-2.6V49.6h-3.4v1.1h-1H367h-0.7
v-1.1h-3.4v16.1h-2.4V49.5l-3.7-3.6l-3.4,0.5v16.9l7.8,7h14.4l7.8-7V47.4L379.9,46.1z M364.9,52.7h7.3H364.9z"></path>
<polyline fill="none" stroke="#007DC4" stroke-miterlimit="10" points="382.5,83.7 382.5,66.8 376.6,72.8 360.4,72.8 353.4,66.3
361.9,92.1 			"></polyline>
<line fill="none" stroke="#007DC4" stroke-miterlimit="10" x1="383.2" y1="36.7" x2="383.2" y2="46.8"></line>
<line fill="none" stroke="#007DC4" stroke-miterlimit="10" x1="383.2" y1="36.9" x2="383.2" y2="37.5"></line>
<line fill="none" stroke="#007DC4" stroke-miterlimit="10" x1="354" y1="37.6" x2="354" y2="36.9"></line>
<line fill="none" stroke="#007DC4" stroke-miterlimit="10" x1="354" y1="45.9" x2="354" y2="36.5"></line>
<line fill="none" stroke="#007DC4" stroke-miterlimit="10" x1="326.7" y1="84.7" x2="347.7" y2="84.7"></line>
<line fill="none" stroke="#007DC4" stroke-miterlimit="10" x1="326.7" y1="86.7" x2="347.7" y2="86.7"></line>
<line fill="none" stroke="#007DC4" stroke-miterlimit="10" x1="326.7" y1="88.8" x2="347.7" y2="88.8"></line>
<polyline fill="none" stroke="#007DC4" stroke-miterlimit="10" points="383.9,90.6 402.4,58.2 408.4,67.9 433,28.4 453.1,58.2
"></polyline>
<polyline fill="none" stroke="#007DC4" stroke-miterlimit="10" points="433.3,96.7 460.9,43.5 488.6,82.8 			"></polyline>
<polyline fill="none" stroke="#007DC4" stroke-miterlimit="10" points="398.5,70.1 399.6,68.1 402,70.8 404.4,67.9 405.3,69.3
"></polyline>
<polyline fill="none" stroke="#007DC4" stroke-miterlimit="10" points="441.9,47.5 439.9,44.8 436.8,49.7 433.2,45.2 429.3,51.4
425.7,45.4 423.4,48.6 			"></polyline>
<polyline fill="none" stroke="#007DC4" stroke-miterlimit="10" points="456.3,57.8 457.2,56.3 459.1,59 460.9,56.3 463.2,59.4
465.7,55.9 467.2,57.4 			"></polyline>
<path fill="none" stroke="#007DC4" stroke-miterlimit="10" d="M314.9,96.7l14.6-26c0,0.7,1.4,1.3,3.2,1.3c1.5,0,2.7-0.4,3.1-0.9
v10.4h3V71.1c0.4,0.5,1.6,0.9,3.1,0.9c1.3,0,2.5-0.3,3-0.8l14.3,25.5 M364,96.7l-2.1-4.6l-10.7-32.6c-0.6-1.7-1.9-3.1-3.6-3.7
l-8.8-3.2h-3.5l0,0l-8.8,3.2c-1.7,0.6-3,2-3.6,3.7l-10.7,32.5l-2.1,4.7 M337.1,57.8l4.5,7.6h-8.9L337.1,57.8z M338.9,70l0-2.1
c-0.3,0.4-0.9,0.6-1.5,0.6c-0.6,0-1.2-0.2-1.5-0.6v2c-1.5,0.6-4.1,1.1-5.7-0.4l1-1.7h4.6c0.3,0.4,0.9,0.6,1.6,0.6
c0.7,0,1.2-0.3,1.6-0.6h4.1l1.2,2.1C342.9,70.8,340.6,71,338.9,70z"></path>
<path fill="none" stroke="#007DC4" stroke-miterlimit="10" d="M383.5,25.6c0-0.9-0.7-1.6-1.6-1.6l-11-1.3c-1.6-0.3-3.2-0.3-4.8,0
l-11,1.3c-0.9,0-1.7,0.7-1.7,1.6l0,9.2h1.7c-0.8,0.3-1.2,0.9-1.2,1.4c0,1,3.6,2.1,7,2.1c2.6,0,4.8-0.8,5.9-1.3v11h3.8V37
c1.1,0.5,3.3,1.3,5.9,1.3c3.3,0,7-1.1,7-2.1c0-0.4-0.5-1.1-1.2-1.4h1.4V25.6z M360.9,38.3c-3.1,0-5.5-0.9-6.1-1.3
c2.9-1.9,9.8-1,11.7,0C365.4,37.5,363.3,38.3,360.9,38.3z M365.8,34.8h1v0.4C366.5,35,366.2,34.9,365.8,34.8z M370.6,34.8h0.9
c-0.4,0.1-0.7,0.3-0.9,0.4V34.8z M382.5,37c-0.6,0.4-3,1.3-6.1,1.3c-2.4,0-4.5-0.8-5.6-1.3C372.9,35.8,379.8,34.9,382.5,37z"></path>
<path fill="none" stroke="#007DC4" stroke-miterlimit="10" d="M379.9,46.1l-3.3,3.2h0.2v16.5h-2.6V49.6h-3.4v1.1h-1H367h-0.7
v-1.1h-3.4v16.1h-2.4V49.5l-3.7-3.6l-3.4,0.5v16.9l7.8,7h14.4l7.8-7V47.4L379.9,46.1z M364.9,52.7h7.3H364.9z"></path>
<polyline fill="none" stroke="#007DC4" stroke-miterlimit="10" points="382.5,83.7 382.5,66.8 376.6,72.8 360.4,72.8 353.4,66.3
361.9,92.1 			"></polyline>
<line fill="none" stroke="#007DC4" stroke-miterlimit="10" x1="383.2" y1="36.7" x2="383.2" y2="46.8"></line>
<line fill="none" stroke="#007DC4" stroke-miterlimit="10" x1="383.2" y1="36.9" x2="383.2" y2="37.5"></line>
<line fill="none" stroke="#007DC4" stroke-miterlimit="10" x1="354" y1="37.6" x2="354" y2="36.9"></line>
<line fill="none" stroke="#007DC4" stroke-miterlimit="10" x1="354" y1="45.9" x2="354" y2="36.5"></line>
<line fill="none" stroke="#007DC4" stroke-miterlimit="10" x1="326.7" y1="84.7" x2="347.7" y2="84.7"></line>
<line fill="none" stroke="#007DC4" stroke-miterlimit="10" x1="326.7" y1="86.7" x2="347.7" y2="86.7"></line>
<line fill="none" stroke="#007DC4" stroke-miterlimit="10" x1="326.7" y1="88.8" x2="347.7" y2="88.8"></line>
<polyline fill="none" stroke="#007DC4" stroke-miterlimit="10" points="383.9,90.6 402.4,58.2 408.4,67.9 433,28.4 453.1,58.2
"></polyline>
<polyline fill="none" stroke="#007DC4" stroke-miterlimit="10" points="433.3,96.7 460.9,43.5 488.6,82.8 			"></polyline>
<polyline fill="none" stroke="#007DC4" stroke-miterlimit="10" points="398.5,70.1 399.6,68.1 402,70.8 404.4,67.9 405.3,69.3
"></polyline>
<polyline fill="none" stroke="#007DC4" stroke-miterlimit="10" points="441.9,47.5 439.9,44.8 436.8,49.7 433.2,45.2 429.3,51.4
425.7,45.4 423.4,48.6 			"></polyline>
<polyline fill="none" stroke="#007DC4" stroke-miterlimit="10" points="456.3,57.8 457.2,56.3 459.1,59 460.9,56.3 463.2,59.4
465.7,55.9 467.2,57.4 			"></polyline>
</g>
<g>
<path fill="none" stroke="#007DC4" stroke-miterlimit="10" d="M651.6,86.8h-5.4v-6h-4.5v-6h-2.2c0,0,0,0,0,0.1
c0,3.6-2.9,6.5-6.5,6.5c-3.6,0-6.5-2.9-6.5-6.5c0,0,0,0,0-0.1l-2.2,0v6h-4.5 M632.9,67.9c-3,0-5.5,2.5-5.5,5.5
c0,3,2.5,5.5,5.5,5.5c3,0,5.5-2.5,5.5-5.5C638.4,70.4,636,67.9,632.9,67.9L632.9,67.9z M638.4,36.7
C638.3,36.7,638.4,36.7,638.4,36.7c-0.2-0.2,0.1-0.4,0.2-0.6s0-0.1-0.2-0.1c-0.1,0-0.1-0.3-0.1-0.5c0-0.2,0.1-0.2,0.3-0.6
c0.1-0.4-0.1-0.1-0.2-0.2c-0.1-0.1,0-0.8,0-1.1c0-0.4,0.2,0,0.4-0.2c0.1-0.2-0.1-0.5-0.1-0.7c0-0.2,0.3-1,0.3-1.4
c0-0.3,0.2-0.3,0.2-0.3l0.5,5.8C639.7,36.8,638.5,36.8,638.4,36.7 M621.7,36.5c-0.1,0,0-1.5,0-1.5l0.4,0v-0.6h-1.2v2.1
c-0.3,0-0.7-0.2-0.7-0.2c-0.2-0.4,0.1-1.6,0.5-2.9c0.4-1.3,0.8-3.1,0.8-3.1c2.1,0.4,3.9,0.2,3.9,0.2l1.9,6.2
C627.3,36.7,621.8,36.5,621.7,36.5 M651.7,36.7l-8,0.1c0,0-0.1-0.4-0.1-0.4c0,0-0.4-0.2-0.5-0.5c-0.1-0.3,0.1-8-2.3-9.9l-3.1-0.8
c0,0-2.4-0.7-2.4-1.9c0,0,0.7-0.4,1-0.2c0.3,0.2,0.3,0.2,0.3,0.2l0.3-0.4l-0.2-0.1c0,0,0.3-1.1,0-1.3c-0.3-0.2-0.8-0.4-0.8-0.4
s0.7-1.5,0.3-3.2c-0.3-1.6-0.6-3.3-3-3.1c-2.4,0.2-3.4,1.6-2.8,4c0.4,1.8,1.1,2.3,1.1,2.3s0.3,0.6,0.2,1
c-0.1,0.4-0.5,2.2-0.5,2.2c0,0-0.6,0-0.6,0s0-1.2-0.4-1.2c-0.4,0-0.7,0.7-0.7,1l-0.4,0c0,0,0.1-0.5-0.3-0.5c-0.3,0-1,0.1-1,0.1
l-0.1,0.4l-2.2,0c0,0-0.7,0-0.8,0.9l-6.6,1.2c0,0-1.2,2.6-1.2,5.6c0,3-0.3,4.2-0.3,4.3c0,0.1,0,1.1,0,1.1l-0.5,0v-0.3
c0,0-0.6,0.3-0.6,0.6c0,0.3,0.4,0.8,0.5,0.7c0.1,0,0-0.2,0-0.2l0.6,0.1l0.1,0c0,0,0,0.6,0.1,0.6c0,0,0.8,0,0.8,0s0,0.3,0,0.3
c0.1,0,0.8,0,0.8,0s0.1,0.2,0.2,0.2c0,0,0.8,0,0.8,0c0,0-0.1-0.2,0.1-0.2c0.2,0,0.7,0,0.7,0l0.1-0.4l0.5,0.4l0.1,2.1h1.1V41
l-0.3,0v-1.5l6.3,0.1c0,0-0.8,2.1-0.9,4.6c-0.2,5.7,0.2,15.8,0.6,22.8h10.1l1.1-18.4l1.2-0.9l-0.3-6h-0.6l-0.2-2h0.9
c0,0,0.1,0,0.1,0c0,0,0.1,1.4,0.1,1.4l0.9,0c0,0,0.2,0.2,0.3,0.1c0.2-0.1,0.6-0.1,0.6-0.1s0.2,0.2,0.3,0.2c0.1,0,0.7-0.2,0.7-0.2
s-0.2-0.1,0-0.1c0.2,0,0.6-0.1,0.7-0.1c0.1,0,0.2-1.2,0.2-1.2h7.8l1.2-1.3L651.7,36.7"></path>
<path fill-rule="evenodd" clip-rule="evenodd" fill="none" stroke="#007DC4" stroke-miterlimit="10" d="M633,68.7
c0.1,0,0.2,0.1,0.2,0.2c0,0.1-0.1,0.2-0.2,0.2s-0.2-0.1-0.2-0.2C632.8,68.8,632.9,68.7,633,68.7L633,68.7z"></path>
<path fill-rule="evenodd" clip-rule="evenodd" fill="none" stroke="#007DC4" stroke-miterlimit="10" d="M628.8,71.2
c0-0.1,0.1-0.2,0.2-0.2c0.1,0,0.2,0.1,0.2,0.2c0,0.1-0.1,0.2-0.2,0.2C628.9,71.4,628.8,71.3,628.8,71.2L628.8,71.2z"></path>
<path fill-rule="evenodd" clip-rule="evenodd" fill="none" stroke="#007DC4" stroke-miterlimit="10" d="M629.2,75.9
c-0.1,0-0.2-0.1-0.2-0.2c0-0.1,0.1-0.2,0.2-0.2c0.1,0,0.2,0.1,0.2,0.2C629.4,75.8,629.3,75.9,629.2,75.9L629.2,75.9z"></path>
<path fill-rule="evenodd" clip-rule="evenodd" fill="none" stroke="#007DC4" stroke-miterlimit="10" d="M633,78.1
c-0.1,0-0.2-0.1-0.2-0.2c0-0.1,0.1-0.2,0.2-0.2c0.1,0,0.2,0.1,0.2,0.2C633.2,78,633.1,78.1,633,78.1L633,78.1z"></path>
<path fill-rule="evenodd" clip-rule="evenodd" fill="none" stroke="#007DC4" stroke-miterlimit="10" d="M636.5,70.9
c0-0.1,0.1-0.2,0.2-0.2c0.1,0,0.2,0.1,0.2,0.2c0,0.1-0.1,0.2-0.2,0.2C636.6,71.2,636.5,71,636.5,70.9L636.5,70.9z"></path>
<path fill-rule="evenodd" clip-rule="evenodd" fill="none" stroke="#007DC4" stroke-miterlimit="10" d="M636.8,75.8
c-0.1,0-0.2-0.1-0.2-0.2c0-0.1,0.1-0.2,0.2-0.2c0.1,0,0.2,0.1,0.2,0.2C637.1,75.7,637,75.8,636.8,75.8L636.8,75.8z"></path>
<path fill="none" stroke="#007DC4" stroke-miterlimit="10" d="M632.9,70.3c1.7,0,3,1.4,3,3c0,1.7-1.4,3-3,3c-1.7,0-3-1.4-3-3
C629.9,71.7,631.3,70.3,632.9,70.3L632.9,70.3z M632.9,71.7V75"></path>
<path fill="none" stroke="#007DC4" stroke-miterlimit="10" d="M631.5,72.5l2.9,1.7 M631.5,74.2l2.9-1.7"></path>
<path fill="none" stroke="#007DC4" stroke-miterlimit="10" d="M794.2,92h2.2 M798,92V74.3c0-4.2,7.6-7.6,7.6-7.6v0
c0,0,7.6,3.4,7.6,7.6V92 M821.8,92V58.9h1.4l-5.7-6.3h0v-0.8h-0.9V40.1l-10.9-1.9l-10.9,1.9v11.6h-1v2.7"></path>
<path fill="none" stroke="#007DC4" stroke-miterlimit="10" d="M813.2,43.4c0.7,0.2,1.3,1,1.3,1.9l0,5.8h-2.6v-6.3
C811.9,43.8,812.4,43.2,813.2,43.4L813.2,43.4z M808.3,41.5c1,0,1.7,0.8,1.7,1.7v7.9h-3.5v-7.9C806.5,42.3,807.3,41.5,808.3,41.5
L808.3,41.5z M803,41.5c1,0,1.7,0.8,1.7,1.7v7.9h-3.5v-7.9C801.2,42.3,802,41.5,803,41.5L803,41.5z M796.9,44.8
c0-1,0.6-1.6,1.3-1.4c0.7,0.2,1.3,1,1.3,1.9l0,5.8h-2.6V44.8L796.9,44.8z"></path>
<path fill="none" stroke="#007DC4" stroke-miterlimit="10" d="M816.8,72.7h-1.4c-1.7-4.7-9.7-8.3-9.7-8.3s-8,3.6-9.7,8.3h-1.4"></path>
<polygon fill="none" stroke="#007DC4" stroke-miterlimit="10" points="790.9,40.2 793.5,37.6 805.4,35.5 817.3,37.6 819.8,40.2
805.8,18.3 805.8,17.2 806.9,17.2 806.9,16.4 805.8,16.4 805.8,13.9 805,13.9 805,16.4 803.8,16.4 803.8,17.2 805,17.2 805,18.3
790.9,40.2 			"></polygon>
<path fill="none" stroke="#007DC4" stroke-miterlimit="10" d="M749.4,66.5V55 M752.5,68.6V57.1 M755.7,70.2V58.7 M758.8,71.6V60
M761.9,72.6V61 M765.1,73.3V61.7 M768.2,73.7V62.2 M771.3,73.9V62.4 M774.5,73.8V62.3 M777.6,73.3V62 M780.7,72.9V61.4
M783.9,72V60.5 M787,70.9V59.3 M790.1,69.4V57.8 M747.5,88.3V55.6h-2v32.7 M730.3,54.4l0.5-2.5h-1.5v-7.7h0.5l0.9-3.1h-1.4v-0.6
h-11.1v-3.7h7v-3.5h-7v-0.8H717v7.9h-10v0.6h-1.4l0.9,3.1h0.5v7.7h-1.5l0.8,2.5h0.1v38.7 M712.5,93.1v-7.6c0-3.1,2.5-5.6,5.6-5.6
c3.1,0,5.6,2.5,5.6,5.6v7.6 M749.7,93.1V76.8c0-1.5,1.2-2.7,2.7-2.7c1.5,0,2.7,1.2,2.7,2.7v16.3 M756.7,93.1V79
c0-1.5,1.2-2.7,2.7-2.7h0c1.5,0,2.7,1.2,2.7,2.7v14 M763.7,93.1V81.3c0-1.5,1.2-2.7,2.7-2.7l0,0c1.5,0,2.7,1.2,2.7,2.7v11.8
M770.7,93.1V81.3c0-1.5,1.2-2.7,2.7-2.7c1.5,0,2.7,1.2,2.7,2.7v11.8 M777.7,93.1V79c0-1.5,1.2-2.7,2.7-2.7l0,0
c1.5,0,2.7,1.2,2.7,2.7v14 M784.7,93.1V76.8c0-1.5,1.2-2.7,2.7-2.7c1.5,0,2.7,1.2,2.7,2.7v16.3 M792.9,93.1v-0.9
c0-0.5,0-0.9,0-1.4c0-7.8,0-14.8,0-22.6c-12.8,8.4-29.4,8.4-42.2,0l-3.2-2.4 M722.2,44.2v7.7 M718.1,44.2v7.7 M714,44.2v7.7
M710,44.2v7.7 M713.6,75h-2.9v-3.2c0-0.8,0.6-1.4,1.4-1.4l0,0c0.8,0,1.5,0.6,1.5,1.4V75L713.6,75z M718.1,66.5
c-2.6,0-4.7-2.1-4.7-4.7c0-2.6,2.1-4.7,4.7-4.7c2.6,0,4.7,2.1,4.7,4.7C722.8,64.4,720.7,66.5,718.1,66.5L718.1,66.5z M725.7,75
h-2.9v-3.2c0-0.8,0.6-1.4,1.5-1.4l0,0c0.8,0,1.4,0.6,1.4,1.4V75L725.7,75z M726.3,44.2v7.7 M742.2,90.1h-3v-6.1h3V90.1
L742.2,90.1z M742.2,82.6h-3v-6.1h3V82.6L742.2,82.6z M742.2,74.9h-3v-6.1h3V74.9L742.2,74.9z M730.3,54.4v9.8h9.5
c0.5,0,1.1,0.2,1.5,0.5l3.1,0 M731.9,52.4l13,0.2l2.4-1.1v0l3.6,2c12.8,8.4,28.5,9.3,41.3,0.9"></path>
<polygon fill-rule="evenodd" clip-rule="evenodd" fill="none" stroke="#007DC4" stroke-miterlimit="10" points="718.2,65.2
718.4,62 720.3,59.5 720.4,59.6 718.6,62 718.4,65.2 718.2,65.2 			"></polygon>
<path fill="none" stroke="#007DC4" stroke-miterlimit="10" d="M651.7,93.1V60.8h54.7V94 M695.4,93.1V78.9c0-1.4,1.1-2.5,2.5-2.5
l0,0c1.4,0,2.5,1.1,2.5,2.5v14.2 M683.9,93.1V78.9c0-1.4,1.1-2.5,2.5-2.5l0,0c1.4,0,2.5,1.1,2.5,2.5v14.2 M672,93.1V78.9
c0-1.4,1.1-2.5,2.5-2.5l0,0c1.4,0,2.5,1.1,2.5,2.5v14.2 M660.5,93.1V78.9c0-1.4,1.1-2.5,2.5-2.5l0,0c1.4,0,2.5,1.1,2.5,2.5v14.2
M701.4,74.7H699v-5.8c0-0.7,0.5-1.2,1.2-1.2l0,0c0.7,0,1.2,0.6,1.2,1.2L701.4,74.7L701.4,74.7z M696.6,74.7h-2.5v-5.8
c0-0.7,0.6-1.2,1.2-1.2l0,0c0.7,0,1.2,0.6,1.2,1.2V74.7L696.6,74.7z M689.9,74.7h-2.5v-5.8c0-0.7,0.5-1.2,1.2-1.2l0,0
c0.7,0,1.2,0.6,1.2,1.2V74.7L689.9,74.7z M685.2,74.7h-2.5v-5.8c0-0.7,0.6-1.2,1.2-1.2l0,0c0.7,0,1.2,0.6,1.2,1.2V74.7
L685.2,74.7z M678.1,74.7h-2.5v-5.8c0-0.7,0.5-1.2,1.2-1.2l0,0c0.7,0,1.2,0.6,1.2,1.2V74.7L678.1,74.7z M673.3,74.7h-2.5v-5.8
c0-0.7,0.5-1.2,1.2-1.2l0,0c0.7,0,1.2,0.6,1.2,1.2V74.7L673.3,74.7z M666.6,74.7h-2.5v-5.8c0-0.7,0.5-1.2,1.2-1.2l0,0
c0.7,0,1.2,0.6,1.2,1.2V74.7L666.6,74.7z M661.8,74.7h-2.5v-5.8c0-0.7,0.6-1.2,1.2-1.2l0,0c0.7,0,1.2,0.6,1.2,1.2V74.7
L661.8,74.7z M704.1,61.7v3.6 M702.1,61.7v3.6 M700.1,61.7v3.6 M698.1,61.7v3.6 M696.1,61.7v3.6 M694.1,61.7v3.6 M692.1,61.7v3.6
M690,61.7v3.6 M688,61.7v3.6 M686,61.7v3.6 M684,61.7v3.6 M682,61.7v3.6 M680,61.7v3.6 M678,61.7v3.6 M676,61.7v3.6 M674,61.7
v3.6 M671.9,61.7v3.6 M669.9,61.7v3.6 M667.9,61.7v3.6 M665.9,61.7v3.6 M663.9,61.7v3.6 M661.9,61.7v3.6 M659.9,61.7v3.6
M657.9,61.7v3.6 M655.9,61.7v3.6 M653.9,61.7v3.6"></path>
<path fill="none" stroke="#007DC4" stroke-miterlimit="10" d="M630.6,64.8V48.2 M633.6,62.2V45.6 M636.1,64.3V47.7 M627.8,32.8
v-4.6"></path>
<line fill="none" stroke="#007DC4" stroke-miterlimit="10" x1="629.4" y1="31" x2="629.4" y2="28.3"></line>
<polyline fill="none" stroke="#007DC4" stroke-miterlimit="10" points="635.7,37.7 634.5,35.2 634.5,28.9 			"></polyline>
<polyline fill="none" stroke="#007DC4" stroke-miterlimit="10" points="630.5,37.7 631.7,35.2 631.7,28.9 			"></polyline>
<path fill="none" stroke="#007DC4" stroke-miterlimit="10" d="M826.3,90.6c-0.2-4.3,2.1-8.3,6.7-11.9c-2.5-4-4.9-8-7.4-12
c9.8,0,19.5,0,29.3,0.1c10.3-6,18-6.1,22.4,1.1c0.9,0,1.8,0,2.7,0 M877.4,69.5c0.8,3.7-2.4,4.7-3.6,7c0.5,2.2-1.2,3.5-3.2,2.3
M861.9,67.3c6.9-0.2,7,3.6,7.2,7.7c0,5.5,0,11.1,0,16.6c0.3,1.1,0.6,2.3,0.9,3.4 M880.7,95V37.5c0-2.9,2.3-5.2,5.2-5.2l0,0
c2.9,0,5.2,2.3,5.2,5.2 M891.1,95V37.5c0-2.9,2.3-5.2,5.2-5.2l0,0c2.9,0,5.2,2.3,5.2,5.2V95 M901.4,37.5c0-2.9,2.3-5.2,5.2-5.2
l0,0c2.9,0,5.2,2.3,5.2,5.2V95 M880.7,80.5V49.8 M880.7,32.6V23c0-2.9,2.3-5.2,5.2-5.2l0,0c2.9,0,5.2,2.3,5.2,5.2 M891.1,80.5
V49.8 M891.1,32.6V23c0-2.9,2.3-5.2,5.2-5.2l0,0c2.9,0,5.2,2.3,5.2,5.2v9.6 M901.4,49.8v30.7 M901.4,23c0-2.9,2.3-5.2,5.2-5.2
l0,0c2.9,0,5.2,2.3,5.2,5.2v9.6 M911.8,49.8v30.7 M885.6,24.7l-0.5,0.9h1h1l-0.5-0.9l-0.5-0.9v-4.4 M895.9,24.7l-0.5,0.9h1h1
l-0.5-0.9l-0.5-0.9v-4.4 M906.1,24.7l-0.5,0.9h1h1l-0.5-0.9l-0.5-0.9v-4.4 M831.5,69.9h32.6 M832.9,72.5h32.6 M834.3,75.1h32.6"></path>
<path fill="none" stroke="#007DC4" stroke-miterlimit="10" d="M966.5,90.6c0.2-4.3-2.1-8.3-6.7-11.9c2.5-4,4.9-8,7.4-12
c-9.8,0-19.5,0-29.3,0.1c-10.3-6-18-6.1-22.4,1.1c-0.9,0-1.8,0-2.7,0 M915.4,69.5c-0.8,3.7,2.4,4.7,3.6,7
c-0.5,2.2,1.2,3.5,3.2,2.3 M930.9,67.3c-6.9-0.2-7,3.6-7.2,7.7c0,5.5,0,11.1,0,16.6c-0.3,1.1-0.6,2.3-0.9,3.4 M961.3,69.9h-32.6
M959.9,72.5h-32.6 M958.5,75.1h-32.6"></path>
<g>
<g>
<polyline fill="none" stroke="#007DC4" stroke-miterlimit="10" points="506.3,95.1 515.5,83 520.2,83 524.2,76.5 528.6,76.5
"></polyline>
</g>
<g>
<polyline fill="none" stroke="#007DC4" stroke-miterlimit="10" points="615.6,95.1 606.4,83 601.7,83 597.7,76.5 593.3,76.5
"></polyline>
</g>
<line fill="none" stroke="#007DC4" stroke-miterlimit="10" x1="527.4" y1="92.6" x2="532.1" y2="82.4"></line>
<polyline fill="none" stroke="#007DC4" stroke-miterlimit="10" points="598.8,92.6 594.3,83.2 593.6,79.9 561.6,79.9
562.5,79.9 530.4,79.9 529.8,83.2 525.2,92.6 				"></polyline>
<line fill="none" stroke="#007DC4" stroke-miterlimit="10" x1="591.9" y1="82.4" x2="596.6" y2="92.6"></line>
<path fill="none" stroke="#007DC4" stroke-miterlimit="10" d="M588.8,75.5c0-0.2-4.8-9.8-4.8-9.8h-5.5l-0.7-1.6h-5.2l-0.6-2
h-11.2h1.2h-11.2l-0.6,2H545l-0.7,1.6h-5.5c0,0-4.8,9.7-4.8,9.8"></path>
<polyline fill="none" stroke="#007DC4" stroke-miterlimit="10" points="578.7,58.6 576.2,53.8 572.5,53.8 572.2,52.9
568.6,52.9 568.4,52 560.2,52 561.2,52 553.1,52 552.8,52.9 549.2,52.9 549,53.8 545.2,53.8 542.8,58.6 				"></polyline>
<polyline fill="none" stroke="#007DC4" stroke-miterlimit="10" points="573.7,49.8 572.5,47.5 569.7,47.5 569.4,46.9
566.4,46.9 566.2,46.4 559.6,46.4 561.4,46.4 554.7,46.4 554.6,46.9 551.5,46.9 551.3,47.5 548.4,47.5 547.2,49.8 				"></polyline>
<line fill="none" stroke="#007DC4" stroke-miterlimit="10" x1="502.5" y1="79.2" x2="520.8" y2="79.2"></line>
<line fill="none" stroke="#007DC4" stroke-miterlimit="10" x1="509.2" y1="73.6" x2="529.4" y2="73.6"></line>
<line fill="none" stroke="#007DC4" stroke-miterlimit="10" x1="514" y1="69.3" x2="531.9" y2="69.3"></line>
<line fill="none" stroke="#007DC4" stroke-miterlimit="10" x1="517.8" y1="65.6" x2="534" y2="65.6"></line>
<line fill="none" stroke="#007DC4" stroke-miterlimit="10" x1="626.7" y1="85.5" x2="613.2" y2="85.5"></line>
<line fill="none" stroke="#007DC4" stroke-miterlimit="10" x1="632.5" y1="94" x2="618.9" y2="94"></line>
<line fill="none" stroke="#007DC4" stroke-miterlimit="10" x1="620" y1="79.2" x2="600.8" y2="79.2"></line>
<line fill="none" stroke="#007DC4" stroke-miterlimit="10" x1="613.2" y1="73.6" x2="593" y2="73.6"></line>
<line fill="none" stroke="#007DC4" stroke-miterlimit="10" x1="608.4" y1="69.3" x2="590.5" y2="69.3"></line>
<line fill="none" stroke="#007DC4" stroke-miterlimit="10" x1="604.6" y1="65.6" x2="588.4" y2="65.6"></line>
<path fill="none" stroke="#007DC4" stroke-miterlimit="10" d="M547.2,88.9c0-2.7,2.2-4.9,4.9-4.9c2.7,0,4.9,2.2,4.9,4.9"></path>
<path fill="none" stroke="#007DC4" stroke-miterlimit="10" d="M537.1,88.9c0-2.7,2.2-4.9,4.9-4.9c2.7,0,4.9,2.2,4.9,4.9"></path>
<path fill="none" stroke="#007DC4" stroke-miterlimit="10" d="M557,88.9c0-2.7,2.2-4.9,4.9-4.9c2.7,0,4.9,2.2,4.9,4.9"></path>
<path fill="none" stroke="#007DC4" stroke-miterlimit="10" d="M567.3,88.9c0-2.7,2.2-4.9,4.9-4.9c2.7,0,4.9,2.2,4.9,4.9"></path>
<path fill="none" stroke="#007DC4" stroke-miterlimit="10" d="M577,88.9c0-2.7,2.2-4.9,4.9-4.9c2.7,0,4.9,2.2,4.9,4.9"></path>
<circle fill="none" stroke="#007DC4" stroke-miterlimit="10" cx="542.1" cy="88.8" r="0.9"></circle>
<circle fill="none" stroke="#007DC4" stroke-miterlimit="10" cx="552.1" cy="88.8" r="0.9"></circle>
<circle fill="none" stroke="#007DC4" stroke-miterlimit="10" cx="562" cy="88.8" r="0.9"></circle>
<circle fill="none" stroke="#007DC4" stroke-miterlimit="10" cx="571.8" cy="88.8" r="0.9"></circle>
<circle fill="none" stroke="#007DC4" stroke-miterlimit="10" cx="581.7" cy="88.8" r="0.9"></circle>
<path fill="none" stroke="#007DC4" stroke-miterlimit="10" d="M553,73c0-4.4,3.6-8,8-8s8,3.6,8,8"></path>
<path fill="none" stroke="#007DC4" stroke-miterlimit="10" d="M555.8,58.9c0-2.8,2.2-5,5-5s5,2.2,5,5"></path>
<path fill="none" stroke="#007DC4" stroke-miterlimit="10" d="M556.8,50.5c0.5-1.5,2-2.6,3.6-2.6c1.7,0,3.1,1.1,3.6,2.6"></path>
<path fill="none" stroke="#007DC4" stroke-miterlimit="10" d="M557.4,45.5c0.4-1.3,1.6-2.2,3.1-2.2c1.4,0,2.6,0.9,3,2.2"></path>
<polyline fill="none" stroke="#007DC4" stroke-miterlimit="10" points="489.1,93 500.4,82.3 514,82.3 				"></polyline>
<polyline fill="none" stroke="#007DC4" stroke-miterlimit="10" points="602.6,63.6 583.4,45.1 583.4,44.5 579.1,41.1
543.7,41.1 539.5,44.5 539.5,45.1 520.2,63.6 				"></polyline>
<line fill="none" stroke="#007DC4" stroke-miterlimit="10" x1="554" y1="59.1" x2="526.5" y2="59.1"></line>
<line fill="none" stroke="#007DC4" stroke-miterlimit="10" x1="595.7" y1="59.1" x2="568.1" y2="59.1"></line>
<line fill="none" stroke="#007DC4" stroke-miterlimit="10" x1="555.4" y1="50.5" x2="536.2" y2="50.5"></line>
<line fill="none" stroke="#007DC4" stroke-miterlimit="10" x1="586.4" y1="50.5" x2="565.8" y2="50.5"></line>
<polyline fill="none" stroke="#007DC4" stroke-miterlimit="10" points="549.3,42.7 547.5,44.7 539.7,44.7 				"></polyline>
<polyline fill="none" stroke="#007DC4" stroke-miterlimit="10" points="571.3,42.7 573.1,44.7 580.9,44.7 				"></polyline>
<line fill="none" stroke="#007DC4" stroke-miterlimit="10" x1="529.9" y1="76.8" x2="589.6" y2="76.8"></line>
<line fill="none" stroke="#007DC4" stroke-miterlimit="10" x1="536.6" y1="92.6" x2="588.8" y2="92.6"></line>
<line fill="none" stroke="#007DC4" stroke-miterlimit="10" x1="504.1" y1="94.8" x2="514" y2="82.5"></line>
</g>
<line fill="none" stroke="#007DC4" stroke-miterlimit="10" x1="591.9" y1="55.8" x2="580.7" y2="55.8"></line>
<line fill="none" stroke="#007DC4" stroke-miterlimit="10" x1="589.8" y1="53.9" x2="579.5" y2="53.9"></line>
<line fill="none" stroke="#007DC4" stroke-miterlimit="10" x1="583.3" y1="48.2" x2="575.8" y2="48.2"></line>
<line fill="none" stroke="#007DC4" stroke-miterlimit="10" x1="530.6" y1="55.8" x2="541.8" y2="55.8"></line>
<line fill="none" stroke="#007DC4" stroke-miterlimit="10" x1="532.8" y1="53.9" x2="543" y2="53.9"></line>
<line fill="none" stroke="#007DC4" stroke-miterlimit="10" x1="539.3" y1="48.2" x2="546.7" y2="48.2"></line>
</g>
<g>
<path fill="none" stroke="#007DC4" stroke-miterlimit="10" d="M0.9,97.9"></path>
<path fill="none" stroke="#007DC4" stroke-miterlimit="10" d="M0.2,96.7l41.1-22.5c0.2-0.1,0.5-0.1,0.7,0l1.3,0.8l10.3-7.2
c0.2-0.2,0.6-0.2,0.8,0l0,0l8.9,6"></path>
<path fill="none" stroke="#007DC4" stroke-miterlimit="10" d="M51.8,88.9"></path>
<path fill="none" stroke="#007DC4" stroke-miterlimit="10" d="M50.9,87.8L84,60.4c0.3-0.2,0.7-0.2,1,0.1l0,0l7.8,9.9l19.1-20.6
c0.3-0.3,0.7-0.3,1,0c0,0,0.1,0.1,0.1,0.1l16.6,21.5"></path>
<path fill="none" stroke="#007DC4" stroke-miterlimit="10" d="M89.5,95.6L123.3,82L142,63.9c0.3-0.3,0.7-0.3,0.9,0l30.1,24.5"></path>
<g>
<path fill="none" stroke="#007DC4" stroke-miterlimit="10" d="M273.7,58.9l0,4.9c0.6,0.1,1.3,0.2,1.9,0.3
c0.3,0.1,0.6,0.4,0.6,0.7l0,1.5c0.5,0.1,1,0.2,1.5,0.4c0.4,0.1,0.6,0.5,0.5,0.8l0,0l-0.4,1.9c-0.1,0.4-0.5,0.6-0.8,0.5
c0,0-0.1,0-0.1,0l-1.3,0.7l0,1.7c1.6,0.2,5.8,0.7,9.2,2.3l0,0 M201.2,64.1c1.2-0.3,3.1-0.6,5.6-1v-4.7 M273.1,57.4
c0,0-0.8-8.5-27.9-9.6c-18.3-0.3-27.9,1.5-32.8,3.6c-0.1,0.3-0.4,0.4-0.7,0.4c-0.1,0-0.2,0-0.2,0c-0.8,0.4-1.5,0.8-2.1,1.2
c-0.1,0.3-0.3,0.5-0.6,0.5c-2,1.7-1.8,3.1-1.8,3.1 M196,78.2v16.4 M286.8,96L286,76.8c-4.2-2.7-11.3-3.2-11.3-3.2
c-0.4,0-0.7-0.4-0.6-0.7l0,0l0.1-2.7c0-0.3,0.2-0.5,0.4-0.6l0,0l0.2-0.1c-10.4-2.5-32.9-2.5-33-2.5c-26.2-0.1-37.9,2-41.9,2.9
c0,0,0.1,0.1,0.1,0.1c0.1,0,0.1,0.1,0.2,0.1c0.3,0.2,0.4,0.7,0.2,1l-0.2,0.2l-0.1,2c0,0.4-0.3,0.6-0.6,0.7
c-4.2,0.5-5.6,1.8-5.9,2.2l-0.1,6.9c0.1-0.1,0.1-0.1,0.2-0.1c0,0,0.5-0.3,0.5-0.3c0.2-0.1,2.1-0.7,2.2-0.5 M288.2,96
M305.6,75.5h-2h-17 M177.6,95.3V75.9l-0.5-0.3c-0.1,0-0.1-0.1-0.2-0.2c-0.2-0.1-0.3-0.2-0.4-0.4l-0.5-1.1
c-0.1-0.4,0-0.8,0.4-0.9c0.1,0,0.2-0.1,0.3-0.1v0h0.8v-1.2c0-0.4,0.3-0.7,0.7-0.7c0,0,0,0,0.1,0l20.1,0.1l0.3-0.4l-1-0.5
c-0.2-0.1-0.3-0.2-0.4-0.4l-0.9-1.8c-0.2-0.3,0-0.8,0.3-0.9c0,0,0.1,0,0.1-0.1c0.2,0,0.9-0.3,2.1-0.6v-1.3
c0-0.3,0.2-0.6,0.6-0.7l0.2,0c0-0.1,0-0.2,0-0.2l0.3-3.9l-1.4-1.3c-0.1-0.1-0.2-0.3-0.2-0.5l0-0.9c0-0.4,0.3-0.7,0.7-0.7
c0,0,0,0,0.1,0l0.8,0v-0.3c0-0.4,0.3-0.7,0.7-0.7h3v-0.5l-0.5-1c-0.2-0.3,0-0.8,0.3-0.9c0.1,0,0.2-0.1,0.3-0.1l0.3,0v-0.7
c0-0.4,0.3-0.7,0.7-0.7h3.7c0.6-0.4,1.4-0.9,2.3-1.3v-5.5l-1.6-3.4l0,0c0-0.1-0.1-0.2-0.1-0.3c0-0.4,0.3-0.7,0.7-0.7l9.7-0.2
c0.1,0,0.1,0,0.2,0l10.5,1.7h21.3l9.8-2.6c0.1,0,0.1,0,0.2,0H272v0c0.1,0,0.3,0,0.4,0.1c0.3,0.2,0.4,0.7,0.1,1l-1.9,2.5l0.3,7.9
h6.2c0.4,0,0.7,0.3,0.7,0.7v2.8l1.6-0.2c0,0,0.1,0,0.1,0c0.4,0,0.7,0.3,0.7,0.7v0.9h1.2v0c0.1,0,0.2,0,0.3,0.1
c0.3,0.2,0.5,0.6,0.3,0.9l-0.6,1.1c0,0.1-0.1,0.1-0.1,0.2l-1,1l0.3,11.4h23.8c0.4,0,0.7,0.3,0.7,0.7v0.8h0.6c0.1,0,0.1,0,0.2,0
c0.4,0.1,0.6,0.5,0.5,0.9l-0.5,1.7l0,0c-0.1,0.2-0.2,0.3-0.4,0.4l-0.6,0.3v21.8 M193.9,75.7h-16.3 M193.4,82.7l-0.2,12.9
M279.8,82.3l4.6,1 M272.8,81.6l7.2,0.8 M284.9,95.4l-0.4-16l0,0 M280.3,94.5l-0.4-16.2l0,0 M196,82.1l4.7-0.5 M201.4,81.3
c0.1,0,4.1-0.4,4.1-0.4c0.3,0,0.6,0.3,0.6,0.6 M209.1,80.7l6.9-0.1 M265.6,81.1c0.2,0,7.2,0.2,7.2,0.2 M254.8,80.7l7.4,0.2
M243.5,80.5c0.3-0.2,9.2-0.1,8.1-0.1 M230.7,80.3l8.1,0c0.1,0,0.2,0,0.3,0.1l0-6.6h0c0-1.2-0.5-2.3-1.3-3
c-0.8-0.8-1.8-1.3-3-1.3c-1.2,0-2.3,0.5-3,1.3l0,0c-0.8,0.8-1.3,1.9-1.3,3v20.6 M239.2,94.4V79.9 M219.4,80.4v14 M227.2,94.4
V74.1c0-1.2-0.4-2.2-1.2-3c-0.7-0.7-1.7-1.2-2.8-1.2c-1.1,0-2.1,0.5-2.8,1.2c-0.7,0.8-1.2,1.8-1.2,3v6.5c0,0,0,0,0,0
c0.2-0.1,7.8,0,7.8,0 M267.4,94c-0.3,0-0.6-0.3-0.6-0.7c0-0.4,0.3-0.7,0.6-0.7h1v-5.8c0-0.4,0.3-0.7,0.7-0.7
c0.4,0,0.7,0.3,0.7,0.7v5.8h1c0.3,0,0.6,0.3,0.6,0.7c0,0.4-0.3,0.7-0.6,0.7h-1v0.4c0,0.4-0.3,0.7-0.7,0.7
c-0.4,0-0.7-0.3-0.7-0.7V94H267.4L267.4,94z M257.2,93.7c-0.3,0-0.6-0.3-0.6-0.7c0-0.4,0.3-0.7,0.6-0.7h1v-5.8
c0-0.4,0.3-0.7,0.7-0.7c0.4,0,0.7,0.3,0.7,0.7v5.8h1c0.3,0,0.6,0.3,0.6,0.7c0,0.4-0.3,0.7-0.6,0.7h-1v0.4c0,0.4-0.3,0.7-0.7,0.7
c-0.4,0-0.7-0.3-0.7-0.7v-0.4H257.2L257.2,93.7z M245.5,93.7c-0.3,0-0.6-0.3-0.6-0.7c0-0.4,0.3-0.7,0.6-0.7h1v-5.8
c0-0.4,0.3-0.7,0.7-0.7c0.4,0,0.7,0.3,0.7,0.7v5.8h1c0.3,0,0.6,0.3,0.6,0.7c0,0.4-0.3,0.7-0.6,0.7h-1v0.4c0,0.4-0.3,0.7-0.7,0.7
c-0.4,0-0.7-0.3-0.7-0.7v-0.4H245.5L245.5,93.7z M233,93.7c-0.3,0-0.6-0.3-0.6-0.7c0-0.4,0.3-0.7,0.6-0.7h1v-5.8
c0-0.4,0.3-0.7,0.7-0.7c0.4,0,0.7,0.3,0.7,0.7v5.8h0.9c0.3,0,0.6,0.3,0.6,0.7c0,0.4-0.3,0.7-0.6,0.7h-0.9v0.4
c0,0.4-0.3,0.7-0.7,0.7c-0.4,0-0.7-0.3-0.7-0.7v-0.4H233L233,93.7z M201.9,93.2c-0.3,0-0.6-0.3-0.6-0.7c0-0.4,0.3-0.7,0.6-0.7
h0.9v-5.2c0-0.4,0.3-0.7,0.7-0.7c0.4,0,0.7,0.3,0.7,0.7v5.2h0.8c0.3,0,0.6,0.3,0.6,0.7c0,0.4-0.3,0.7-0.6,0.7h-0.8v0.3
c0,0.4-0.3,0.7-0.7,0.7c-0.4,0-0.7-0.3-0.7-0.7v-0.3H201.9L201.9,93.2z M210.4,93.3c-0.3,0-0.6-0.3-0.6-0.7
c0-0.4,0.3-0.7,0.6-0.7h1v-5.8c0-0.4,0.3-0.7,0.7-0.7c0.4,0,0.7,0.3,0.7,0.7v5.8h0.9c0.3,0,0.6,0.3,0.6,0.7
c0,0.4-0.3,0.7-0.6,0.7h-0.9v0.4c0,0.4-0.3,0.7-0.7,0.7c-0.4,0-0.7-0.3-0.7-0.7v-0.4H210.4L210.4,93.3z M221,93.3
c-0.3,0-0.6-0.3-0.6-0.7c0-0.4,0.3-0.7,0.6-0.7h1v-5.8c0-0.4,0.3-0.7,0.7-0.7c0.4,0,0.7,0.3,0.7,0.7v5.8h0.9
c0.3,0,0.6,0.3,0.6,0.7c0,0.4-0.3,0.7-0.6,0.7h-0.9v0.4c0,0.4-0.3,0.7-0.7,0.7c-0.4,0-0.7-0.3-0.7-0.7v-0.4H221L221,93.3z
M233.1,53.6V61 M227.5,54.2l0,6.9 M225.7,54.5l0,6.7 M221.2,55.5l0,6 M219.4,55.7l0,5.9 M215.8,57.1v4.8 M214.1,57.5v4.6
M211.4,58.7v3.7 M209.8,59.9v2.7 M208.4,59.9 M272.3,63.6l0-4.6c-1.1-1.8-4.2-3.8-9.8-5.4c-4.8-1.3-11.3-2.3-19.7-2.6
c-30.8-1-34.2,6.6-34.5,7.4v4.4 M269.8,58.3v5 M267.7,57.3V63 M265.8,56.6v6.2 M262.9,55.6v6.9 M261,55v7.2 M256.6,54.5v7.3
M254.6,54.5v7.2 M249.4,53.6v7.7 M247.4,53.6v7.6 M242.2,53.6v7.4 M240.2,53.6V61 M235.1,53.6V61 M200.4,66.1
c5.9-1.2,19.2-3.3,40.8-2.9l0,0c0.4,0,21.2,0.3,33.5,2.8 M206.1,94.1l0-18.7h0c0-1.1-0.3-2.1-0.8-2.8l0,0c-0.4-0.6-1-1-1.7-1
c-0.6,0-1.2,0.4-1.7,1c-0.5,0.7-0.8,1.7-0.8,2.8v18.7l0,0 M216.3,94.4l0-20h0c0-1.1-0.4-2.1-1.1-2.8c-0.7-0.7-1.6-1.1-2.6-1.1
c-1,0-1.9,0.4-2.6,1.1c-0.7,0.7-1.1,1.7-1.1,2.8v20 M272.8,94.1v-19c0-1.1-0.4-2.1-1.1-2.8c-0.7-0.7-1.6-1.1-2.6-1.1
c-1,0-1.9,0.4-2.6,1.1c-0.7,0.7-1.1,1.7-1.1,2.8v19.3l0,0 M262.4,94.4l0-20h0c0-1.2-0.4-2.2-1.2-3c-0.7-0.7-1.7-1.2-2.8-1.2
c-1.1,0-2.1,0.5-2.8,1.2c-0.7,0.8-1.2,1.8-1.2,3v20l0,0 M251.8,94.4V73.9c0-1.2-0.5-2.3-1.3-3c-0.8-0.8-1.8-1.3-3-1.3
c-1.2,0-2.3,0.5-3,1.3c-0.8,0.8-1.3,1.9-1.3,3v20.6l0,0 M241.3,64.7L241.3,64.7 M198.4,68.7c2.6-0.7,14-3.4,43.4-3.3
c0.1,0,25,0,34.8,3l0,0"></path>
</g>
<g>
<path fill="none" stroke="#007DC4" stroke-miterlimit="10" d="M125.7,15.7l-5.6,2c-0.1,0-0.1,0-0.2,0c-0.4,0-0.7-0.3-0.7-0.7
v-0.2L70.6,30l0,0"></path>
<path fill="none" stroke="#007DC4" stroke-miterlimit="10" d="M180.4,0.5l-45.7,12.3v0.5c0,0.3-0.2,0.6-0.5,0.7
c0,0-4.5,1-4.7,0.9"></path>
<path fill="none" stroke="#007DC4" stroke-miterlimit="10" d="M138.5,41.2h-19l0,0 M123.1,38.4v-6.2 M129.4,38.4v-6.2
M135.6,38.4v-6.2 M129,15v9.9l1.6,3.5h3.2c0.4,0,0.7,0.3,0.7,0.7v0.2l3.3,0v0c0.8,0,1.5,0.3,2,0.7c0.5,0.5,0.9,1.1,1.1,1.9
l1.6,9.6c0,0.1,0,0.2,0,0.3c0,0.4-0.1,0.8-0.4,1c-0.2,0.3-0.6,0.5-0.9,0.5l0,0c-0.1,0-0.2,0-0.3,0h-22.9c-0.1,0-0.2,0-0.3,0
c-0.4-0.1-0.7-0.3-1-0.6c-0.2-0.3-0.4-0.7-0.4-1c0-0.1,0-0.2,0-0.3l1.6-9.6c0.1-0.8,0.5-1.4,1.1-1.9c0.5-0.5,1.3-0.7,2-0.7h3.1
V29c0-0.4,0.3-0.7,0.7-0.7h2l-1-2.3c0-0.1-0.1-0.2-0.1-0.3v-10v-0.2"></path>
<g>
<circle fill="none" stroke="#007DC4" stroke-miterlimit="10" cx="127.2" cy="13.5" r="2.5"></circle>
<circle fill="none" stroke="#007DC4" stroke-miterlimit="10" cx="127.1" cy="13.5" r="0.7"></circle>
</g>
</g>
</g>
</g>
</g>
</svg>