 <svg width="37.7" version="1.1" xmlns="http://www.w3.org/2000/svg" xmlns:xlink="http://www.w3.org/1999/xlink" x="0px" y="0px" viewBox="0 0 37.7 38.2" enable-background="new 0 0 37.7 38.2" xml:space="preserve">
                    <g id="Layer_2">
                    </g>
                    <g id="Layer_1">
                    <g>
                    <path fill="none" stroke="#007DC4" stroke-miterlimit="10" d="M26.6,8.2c3.5-0.4,7.1-0.1,10.6,1.8c0,8.6,0,17.1,0,25.7
                    c-12.2-6.7-24.5,6.7-36.7,0c0-8.6,0-17.1,0-25.7c3.9,2.1,7.7,2.2,11.6,1.6"></path>
                    <g>
                    <path fill="none" stroke="#007DC4" stroke-miterlimit="10" d="M26.5,8.1c0,4.2-7.6,13.9-7.6,13.9s-7.6-9.7-7.6-13.9
                    s3.4-7.6,7.6-7.6S26.5,3.9,26.5,8.1z"></path>
                    <circle fill="none" stroke="#007DC4" stroke-miterlimit="10" cx="18.8" cy="8.1" r="3.5"></circle>
                    </g>
                    <line fill="none" stroke="#007DC4" stroke-miterlimit="10" x1="11.7" y1="35.8" x2="11.7" y2="13.1"></line>
                    <line fill="none" stroke="#007DC4" stroke-miterlimit="10" x1="28.4" y1="32.5" x2="28.4" y2="9.9"></line>
                    </g>
                    </g>
</svg>